<?xml version="1.0" standalone="no"?>
<!DOCTYPE svg PUBLIC "-//W3C//DTD SVG 20010904//EN"
 "http://www.w3.org/TR/2001/REC-SVG-20010904/DTD/svg10.dtd">
<svg version="1.0" xmlns="http://www.w3.org/2000/svg"
 width="500.000000pt" height="120.000000pt" viewBox="0 0 500.000000 120.000000"
 preserveAspectRatio="xMidYMid meet">

<g transform="translate(0.000000,120.000000) scale(0.100000,-0.100000)"
fill="#000000" stroke="none">
<path d="M2642 878 c8 -12 25 -24 37 -26 18 -3 20 0 12 20 -5 15 -18 24 -36
26 -28 4 -28 3 -13 -20z"/>
<path d="M1125 765 c-80 -28 -120 -106 -96 -187 16 -51 48 -83 99 -99 140 -42
254 115 170 234 -37 52 -110 74 -173 52z m95 -50 c37 -19 50 -43 50 -95 0 -33
-6 -48 -29 -71 -77 -77 -200 13 -157 115 26 61 78 81 136 51z"/>
<path d="M1390 625 l0 -145 25 0 c24 0 24 1 27 100 l3 100 75 -100 c55 -73 81
-99 98 -100 22 0 22 1 22 146 0 145 0 145 -22 142 -22 -3 -23 -9 -28 -98 l-5
-94 -74 97 c-57 74 -79 97 -97 97 l-24 0 0 -145z"/>
<path d="M1740 625 l0 -145 111 0 c100 0 110 2 107 18 -3 14 -16 17 -86 20
l-82 3 0 39 0 40 69 0 c60 0 69 3 74 19 7 29 1 31 -75 31 l-68 0 0 40 0 40 80
0 c73 0 80 2 80 20 0 19 -7 20 -105 20 l-105 0 0 -145z"/>
<path d="M2055 745 c-51 -51 -24 -116 58 -140 69 -20 79 -28 75 -56 -3 -21 -9
-24 -46 -27 -28 -2 -53 3 -69 13 -24 16 -26 16 -42 0 -15 -15 -15 -17 4 -31
54 -40 147 -42 186 -3 25 25 26 90 2 112 -10 8 -42 24 -72 34 -62 20 -82 43
-62 67 16 19 57 20 91 1 18 -9 29 -10 37 -3 35 29 -9 58 -88 58 -40 0 -55 -5
-74 -25z"/>
<path d="M2300 745 c0 -23 4 -25 45 -25 l45 0 0 -120 0 -120 25 0 25 0 0 119
0 120 48 3 c39 3 47 6 47 23 0 19 -8 20 -117 23 l-118 3 0 -26z"/>
<path d="M2645 761 c-6 -10 -105 -271 -105 -277 0 -2 11 -4 24 -4 26 0 28 5
82 158 10 28 21 52 24 52 3 0 23 -47 44 -105 34 -94 40 -105 62 -105 13 0 24
3 24 7 0 4 -24 69 -52 145 -46 120 -55 138 -75 138 -12 0 -24 -4 -28 -9z"/>
</g>
</svg>
